<svg width="39" height="39" viewBox="0 0 39 39" fill="none" xmlns="http://www.w3.org/2000/svg">
    <path d="M30.6297 32.2418H8.06047C6.27981 32.2418 4.8363 30.7983 4.8363 29.0176V14.5088C4.8363 12.7282 6.27981 11.2847 8.06047 11.2847H30.6297C32.4104 11.2847 33.8538 12.7282 33.8538 14.5088V29.0176C33.8538 30.7983 32.4104 32.2418 30.6297 32.2418Z" stroke="#FEF08A" stroke-width="1.5"/>
    <path d="M11.2845 11.2848V5.80368C11.2845 5.26948 11.7176 4.83643 12.2518 4.83643H26.4381C26.9724 4.83643 27.4054 5.26948 27.4054 5.80368V11.2848" stroke="#FEF08A" stroke-width="1.5"/>
    <path d="M16.1208 4.83643V11.2848" stroke="#FEF08A" stroke-width="1.5"/>
    <path d="M19.345 4.83643V11.2848" stroke="#FEF08A" stroke-width="1.5"/>
    <path d="M26.5994 22.5691C26.1543 22.5691 25.7933 22.2082 25.7933 21.7631C25.7933 21.318 26.1543 20.957 26.5994 20.957C27.0445 20.957 27.4054 21.318 27.4054 21.7631C27.4054 22.2082 27.0445 22.5691 26.5994 22.5691Z" fill="#FEF08A" stroke="#FEF08A" stroke-width="1.5" stroke-linecap="round" stroke-linejoin="round"/>
</svg>
