<svg width="26" height="26" viewBox="0 0 26 26" fill="none" xmlns="http://www.w3.org/2000/svg">
    <path d="M18.0639 13.2694C18.3521 13.2694 18.5858 13.0357 18.5858 12.7475C18.5858 12.4593 18.3521 12.2256 18.0639 12.2256C17.7757 12.2256 17.542 12.4593 17.542 12.7475C17.542 13.0357 17.7757 13.2694 18.0639 13.2694Z" stroke="#FEF08A" stroke-width="1.5" stroke-linecap="round" stroke-linejoin="round"/>
    <path d="M12.8449 13.2694C13.1331 13.2694 13.3668 13.0357 13.3668 12.7475C13.3668 12.4593 13.1331 12.2256 12.8449 12.2256C12.5567 12.2256 12.323 12.4593 12.323 12.7475C12.323 13.0357 12.5567 13.2694 12.8449 13.2694Z" fill="#FEF08A" stroke="#FEF08A" stroke-width="1.5" stroke-linecap="round" stroke-linejoin="round"/>
    <path d="M7.62602 13.2694C7.91425 13.2694 8.14791 13.0357 8.14791 12.7475C8.14791 12.4593 7.91425 12.2256 7.62602 12.2256C7.33779 12.2256 7.10413 12.4593 7.10413 12.7475C7.10413 13.0357 7.33779 13.2694 7.62602 13.2694Z" fill="#FEF08A" stroke="#FEF08A" stroke-width="1.5" stroke-linecap="round" stroke-linejoin="round"/>
    <path d="M12.8449 23.1852C18.6095 23.1852 23.2827 18.512 23.2827 12.7474C23.2827 6.98273 18.6095 2.30957 12.8449 2.30957C7.08027 2.30957 2.4071 6.98273 2.4071 12.7474C2.4071 14.6485 2.91539 16.431 3.8035 17.9663L2.92899 22.6633L7.62601 21.7888C9.16127 22.6769 10.9438 23.1852 12.8449 23.1852Z" stroke="#FEF08A" stroke-width="1.5" stroke-linecap="round" stroke-linejoin="round"/>
</svg>
