<svg width="26" height="26" viewBox="0 0 26 26" fill="none" xmlns="http://www.w3.org/2000/svg">
    <path d="M20.9571 23.6441C21.8474 23.6441 22.5691 22.9223 22.5691 22.032C22.5691 21.1417 21.8474 20.4199 20.9571 20.4199C20.0668 20.4199 19.345 21.1417 19.345 22.032C19.345 22.9223 20.0668 23.6441 20.9571 23.6441Z" stroke="#FEF08A" stroke-width="1.5" stroke-linecap="round" stroke-linejoin="round"/>
    <path d="M10.2099 23.6441C11.1002 23.6441 11.8219 22.9223 11.8219 22.032C11.8219 21.1417 11.1002 20.4199 10.2099 20.4199C9.31953 20.4199 8.59778 21.1417 8.59778 22.032C8.59778 22.9223 9.31953 23.6441 10.2099 23.6441Z" stroke="#FEF08A" stroke-width="1.5" stroke-linecap="round" stroke-linejoin="round"/>
    <path d="M5.37358 4.29886C5.19446 3.58238 4.29886 2.14941 2.14941 2.14941M5.37358 4.29886H23.6439L21.4944 16.1208H7.52303L5.37358 4.29886Z" stroke="#FEF08A" stroke-width="1.5" stroke-linecap="round" stroke-linejoin="round"/>
    <path d="M21.4944 16.1211H7.52302H5.62159C3.70395 16.1211 2.68677 16.9607 2.68677 18.2705C2.68677 19.5804 3.70395 20.42 5.62159 20.42H20.9571" stroke="#FEF08A" stroke-width="1.5" stroke-linecap="round" stroke-linejoin="round"/>
</svg>
