<svg width="48" height="49" viewBox="0 0 48 49" fill="none" xmlns="http://www.w3.org/2000/svg">
    <path d="M41.4329 26.8635V16.8951C41.4329 14.6929 39.698 12.9077 37.5579 12.9077H10.4324C8.2923 12.9077 6.55737 14.6929 6.55737 16.8951V28.8572C6.55737 31.0595 8.2923 32.8446 10.4324 32.8446H23.9951" stroke="#FEF08A" stroke-width="1.5" stroke-linecap="round" stroke-linejoin="round"/>
    <path fill-rule="evenodd" clip-rule="evenodd" d="M41.1982 34.6739C42.155 35.2794 42.0961 36.7534 41.1106 36.8684L36.1378 37.4484L33.9073 42.0584C33.4653 42.9719 32.0992 42.5247 31.8733 41.3925L29.4411 29.1991C29.2502 28.2421 30.0861 27.6398 30.8946 28.1518L41.1982 34.6739Z" stroke="#FEF08A" stroke-width="1.5"/>
    <path d="M23.9951 22.8962L24.0145 22.874" stroke="#FEF08A" stroke-width="1.5" stroke-linecap="round" stroke-linejoin="round"/>
    <path d="M31.7452 22.8962L31.7646 22.874" stroke="#FEF08A" stroke-width="1.5" stroke-linecap="round" stroke-linejoin="round"/>
    <path d="M16.245 22.8962L16.2644 22.874L16.245 22.8962Z" fill="#FEF08A"/>
    <path d="M16.245 22.8962L16.2644 22.874" stroke="#FEF08A" stroke-width="1.5" stroke-linecap="round" stroke-linejoin="round"/>
</svg>
