<svg width="64" height="64" viewBox="0 0 64 64" fill="none" xmlns="http://www.w3.org/2000/svg">
    <path d="M39.9998 41.3334C39.2925 41.3334 38.6143 41.0524 38.1142 40.5523C37.6141 40.0522 37.3331 39.3739 37.3331 38.6667C37.3331 37.9594 37.6141 37.2812 38.1142 36.7811C38.6143 36.281 39.2925 36 39.9998 36C42.4077 35.9989 44.7704 35.3457 46.8369 34.1099C48.9035 32.874 50.5968 31.1016 51.7371 28.9808C52.8774 26.86 53.4221 24.47 53.3134 22.0645C53.2046 19.6591 52.4465 17.3279 51.1195 15.3187C49.7925 13.3094 47.9461 11.697 45.7765 10.6527C43.6068 9.60833 41.1948 9.17103 38.7966 9.3872C36.3984 9.60336 34.1035 10.4649 32.1556 11.8804C30.2077 13.2959 28.6794 15.2125 27.7331 17.4267L25.8131 21.9227L21.1678 20.3974C20.0685 20.0373 18.9042 19.92 17.7553 20.0534C16.6063 20.1868 15.4999 20.5678 14.5123 21.1701C13.5248 21.7724 12.6796 22.5817 12.0351 23.5422C11.3905 24.5027 10.9619 25.5916 10.7788 26.7337C10.5957 27.8758 10.6625 29.0441 10.9745 30.1579C11.2865 31.2718 11.8363 32.3047 12.5861 33.1855C13.3358 34.0663 14.2677 34.7741 15.3174 35.26C16.3671 35.7459 17.5097 35.9984 18.6664 36H23.9998C24.707 36 25.3853 36.281 25.8854 36.7811C26.3855 37.2812 26.6664 37.9594 26.6664 38.6667C26.6664 39.3739 26.3855 40.0522 25.8854 40.5523C25.3853 41.0524 24.707 41.3334 23.9998 41.3334H18.6664C16.7379 41.3323 14.8324 40.9128 13.0817 40.1039C11.3309 39.295 9.77646 38.116 8.52556 36.6481C7.27467 35.1802 6.3571 33.4584 5.83617 31.6015C5.31525 29.7445 5.20335 27.7967 5.50821 25.8924C5.81307 23.988 6.52743 22.1725 7.602 20.571C8.67657 18.9695 10.0858 17.6202 11.7324 16.6161C13.379 15.6121 15.2239 14.9772 17.1396 14.7553C19.0554 14.5333 20.9966 14.7297 22.8291 15.3307C24.5213 11.3777 27.526 8.1299 31.3356 6.13588C35.1453 4.14185 39.5264 3.5238 43.739 4.38613C47.9516 5.24846 51.7375 7.53832 54.4572 10.8689C57.1769 14.1995 58.6637 18.3667 58.6665 22.6667C58.6665 27.6174 56.6998 32.3653 53.1991 35.866C49.6984 39.3667 44.9505 41.3334 39.9998 41.3334ZM33.8931 33.504C35.2771 34.032 35.9918 35.64 35.4878 37.0934L31.8398 47.6267C31.3331 49.08 29.8051 49.8294 28.4211 49.2987C27.0371 48.7707 26.3251 47.1627 26.8291 45.7094L30.4771 35.176C30.9784 33.7227 32.5091 32.9734 33.8931 33.504ZM38.2451 44.0347C39.6291 44.5627 40.3411 46.1707 39.8371 47.624L36.1891 58.1574C35.6878 59.6107 34.1571 60.36 32.7731 59.8294C31.3891 59.3014 30.6744 57.6934 31.1784 56.24L34.8265 45.7067C35.3331 44.2534 36.8611 43.504 38.2451 44.0347ZM29.3331 43.864H37.3331C38.8051 43.864 39.9998 45.1174 39.9998 46.6667C39.9998 48.2134 38.8051 49.4667 37.3331 49.4667H29.3331C27.8611 49.4667 26.6664 48.2134 26.6664 46.6667C26.6664 45.12 27.8611 43.8667 29.3331 43.8667V43.864Z" fill="#E2E8F0"/>
</svg>
