<svg width="80" height="80" viewBox="0 0 80 80" fill="none" xmlns="http://www.w3.org/2000/svg">
    <path d="M41.8297 7.53334C40.9596 6.95687 39.9364 6.65502 38.8928 6.6669C37.8491 6.67879 36.8331 7.00387 35.9764 7.6L9.7597 25.8667C8.3597 26.84 7.52637 28.4333 7.52637 30.14V49.8167C7.52637 51.5667 8.40637 53.1967 9.86637 54.16L36.513 71.7767C37.3649 72.3399 38.3635 72.6402 39.3847 72.6402C40.4059 72.6402 41.4045 72.3399 42.2564 71.7767L69.433 53.8233C70.893 52.8567 71.7697 51.2233 71.7697 49.4767V30.1433C71.7697 28.3967 70.893 26.7667 69.4364 25.8L41.8297 7.53334ZM62.1297 28.8433L52.083 35.5867L42.663 28.7367L42.603 15.2633L62.1264 28.8433H62.1297ZM35.7897 15.2767V28.4667L26.133 35.2133L16.5097 28.7567L35.7897 15.2767ZM13.8664 35.2533L20.0997 39.43L13.8664 43.79V35.2567V35.2533ZM35.9497 63.3633L16.513 50.3333L26.223 43.5433L35.9564 50.07V63.37L35.9497 63.3633ZM32.2664 39.32L38.5597 34.92L45.893 39.7367L39.393 44.1033L32.2664 39.32ZM42.823 63.3633V50.0633L52.123 43.83L62.133 50.4133L42.823 63.3633ZM64.9064 44.0133L58.3064 39.68L64.9064 35.25V44.0167V44.0133Z" fill="#F1F5F9"/>
</svg>
