<svg width="38" height="39" viewBox="0 0 38 39" fill="none" xmlns="http://www.w3.org/2000/svg">
    <path d="M16.008 30.2778V8.3584M22.2707 8.3584H33.8567C34.3756 8.3584 34.7961 8.77898 34.7961 9.2978V29.3384C34.7961 29.8573 34.3756 30.2778 33.8567 30.2778H22.2707V8.3584ZM22.2707 8.3584V30.2778V8.3584ZM22.2707 8.3584H16.008H22.2707ZM22.2707 30.2778H16.008H22.2707ZM16.008 30.2778H4.42207C3.90325 30.2778 3.48267 29.8573 3.48267 29.3384V9.2978C3.48267 8.77898 3.90325 8.3584 4.42207 8.3584H16.008V30.2778Z" stroke="#FEF08A" stroke-width="1.5" stroke-linecap="round" stroke-linejoin="round"/>
    <path d="M10.5479 15.5957C10.5777 15.5954 10.6144 15.6041 10.6533 15.6289C10.7337 15.6802 10.8105 15.7934 10.8105 15.9502V22.1523C10.8105 22.309 10.7336 22.4213 10.6533 22.4727C10.6144 22.4975 10.5777 22.5071 10.5479 22.5068C10.5343 22.5067 10.5176 22.5046 10.498 22.498L10.4297 22.4609C9.369 21.6983 8.67969 20.455 8.67969 19.0508C8.67977 17.7343 9.28551 16.5592 10.2354 15.7891L10.4297 15.6406C10.481 15.6038 10.5206 15.596 10.5479 15.5957Z" fill="#FEF08A" stroke="#FEF08A"/>
    <path d="M27.7812 15.6045L27.8496 15.6406C28.9102 16.4033 29.5985 17.6467 29.5986 19.0508C29.5986 20.3671 28.9935 21.5424 28.0439 22.3125L27.8496 22.4609C27.7981 22.498 27.7578 22.5066 27.7305 22.5068C27.7006 22.5071 27.6649 22.4974 27.626 22.4727C27.5456 22.4214 27.4678 22.3093 27.4678 22.1523V15.9502C27.4678 15.7933 27.5455 15.6802 27.626 15.6289C27.6648 15.6042 27.7007 15.5954 27.7305 15.5957C27.7442 15.5958 27.7613 15.5978 27.7812 15.6045Z" fill="#FEF08A" stroke="#FEF08A"/>
</svg>
