<svg width="39" height="39" viewBox="0 0 39 39" fill="none" xmlns="http://www.w3.org/2000/svg">
    <path d="M29.233 17.7329C30.171 26.3987 33.8538 29.0175 33.8538 29.0175H4.8363C4.8363 29.0175 9.67256 25.5784 9.67256 13.5415C9.67256 10.8051 10.6916 8.18088 12.5056 6.24601C14.3195 4.31112 16.7798 3.22412 19.3451 3.22412C19.8888 3.22412 20.4279 3.27297 20.9572 3.36839" stroke="#FEF08A" stroke-width="1.5" stroke-linecap="round" stroke-linejoin="round"/>
    <path d="M30.6296 12.8966C33.3007 12.8966 35.4658 10.7314 35.4658 8.06038C35.4658 5.38939 33.3007 3.22412 30.6296 3.22412C27.9585 3.22412 25.7933 5.38939 25.7933 8.06038C25.7933 10.7314 27.9585 12.8966 30.6296 12.8966Z" stroke="#FEF08A" stroke-width="1.5" stroke-linecap="round" stroke-linejoin="round"/>
    <path d="M22.134 33.854C21.8506 34.3426 21.4438 34.7482 20.9542 35.03C20.4648 35.312 19.9099 35.4604 19.3451 35.4604C18.7802 35.4604 18.2253 35.312 17.7359 35.03C17.2464 34.7482 16.8396 34.3426 16.5562 33.854" stroke="#FEF08A" stroke-width="1.5" stroke-linecap="round" stroke-linejoin="round"/>
</svg>
