<svg width="48" height="48" viewBox="0 0 48 48" fill="none" xmlns="http://www.w3.org/2000/svg">
    <path d="M16.5053 23.3139L6.60533 13.4139C6.41431 13.2294 6.26194 13.0087 6.15712 12.7647C6.05231 12.5207 5.99713 12.2583 5.99483 11.9927C5.99252 11.7272 6.04312 11.4638 6.14368 11.218C6.24425 10.9722 6.39275 10.7489 6.58054 10.5611C6.76832 10.3733 6.99163 10.2248 7.23742 10.1243C7.48321 10.0237 7.74657 9.97311 8.01213 9.97542C8.27769 9.97772 8.54013 10.0329 8.78414 10.1377C9.02814 10.2425 9.24883 10.3949 9.43333 10.5859L20.7473 21.8999C21.1223 22.275 21.3329 22.7836 21.3329 23.3139C21.3329 23.8442 21.1223 24.3529 20.7473 24.7279L9.43333 36.0419C9.24883 36.2329 9.02814 36.3853 8.78414 36.4901C8.54013 36.5949 8.27769 36.6501 8.01213 36.6524C7.74657 36.6547 7.48321 36.6041 7.23742 36.5036C6.99163 36.403 6.76832 36.2545 6.58054 36.0667C6.39275 35.8789 6.24425 35.6556 6.14368 35.4098C6.04312 35.164 5.99252 34.9007 5.99483 34.6351C5.99713 34.3696 6.05231 34.1071 6.15712 33.8631C6.26194 33.6191 6.41431 33.3984 6.60533 33.2139L16.5053 23.3139ZM24.0193 31.9999H40.0193C40.5498 31.9999 41.0585 32.2106 41.4335 32.5857C41.8086 32.9608 42.0193 33.4695 42.0193 33.9999C42.0193 34.5304 41.8086 35.0391 41.4335 35.4141C41.0585 35.7892 40.5498 35.9999 40.0193 35.9999H24.0193C23.4889 35.9999 22.9802 35.7892 22.6051 35.4141C22.23 35.0391 22.0193 34.5304 22.0193 33.9999C22.0193 33.4695 22.23 32.9608 22.6051 32.5857C22.9802 32.2106 23.4889 31.9999 24.0193 31.9999Z" fill="#CBD5E1"/>
</svg>
